<svg width="91" height="143" viewBox="0 0 91 143" fill="none" xmlns="http://www.w3.org/2000/svg">
<path d="M85.5 0H5.5V80H85.5V0Z" fill="#BC85F3"/>
<path d="M78.7956 6.7041H12.2047V73.2953H78.7956V6.7041Z" fill="#252653"/>
<path fill-rule="evenodd" clip-rule="evenodd" d="M37.6632 49.1828L40.4495 58.4514H48.2758L37.1618 21.1482C37.1411 21.0806 37.0894 21.0338 36.9809 21.0338L27.7847 21.0078C27.428 21.0078 27.4177 21.1951 27.4487 21.5487C27.5624 22.8334 27.5004 23.5512 27.2368 24.555L17.3841 58.4566L24.8072 58.4462L27.1179 49.1776L37.6632 49.1828ZM36.3296 42.4629H28.71L32.4061 27.4469L36.3296 42.4629ZM57.4048 46.1713L71.7702 46.1921C72.6749 45.0271 72.8403 42.8373 72.8144 41.4018C72.7162 35.5764 68.8806 30.0007 61.9538 29.9643C50.3228 29.8967 48.1207 44.6942 52.0804 53.2294C53.3262 55.9132 55.8281 57.6192 58.7643 58.4306C60.1031 58.7999 61.5247 58.9871 62.9618 58.9923C65.8049 59.0027 68.6945 58.311 71.0155 56.9795C71.0517 56.9587 71.1137 56.9587 71.1189 56.917V56.7506L71.1137 51.9291C71.1137 51.7106 70.9483 51.5858 70.7002 51.6638C67.764 52.5532 57.8183 55.3931 57.3582 46.4418C57.3531 46.3742 57.3376 46.1713 57.4048 46.1713ZM64.6056 41.3394H57.291C57.3272 37.4281 59.1106 35.2071 61.8659 35.1967C64.3678 35.1863 65.96 36.934 66.0375 41.2458C66.0375 41.4434 66.0375 41.3394 66.0375 41.3394H64.6056Z" fill="#BC85F3"/>
<path d="M30.1539 120L29.4293 117.621H25.7857L25.0611 120H22.7779L26.3052 109.965H28.8961L32.4371 120H30.1539ZM28.9234 115.844L28.1988 113.52C28.1532 113.365 28.0917 113.166 28.0142 112.925C27.9413 112.679 27.8661 112.43 27.7886 112.18C27.7157 111.924 27.6565 111.703 27.6109 111.517C27.5653 111.703 27.5015 111.936 27.4195 112.214C27.342 112.487 27.2668 112.747 27.1939 112.993C27.121 113.239 27.0686 113.415 27.0367 113.52L26.3189 115.844H28.9234ZM36.2376 120.137C35.3854 120.137 34.6904 119.804 34.1526 119.139C33.6194 118.469 33.3528 117.487 33.3528 116.192C33.3528 114.884 33.624 113.896 34.1663 113.226C34.7086 112.551 35.4173 112.214 36.2923 112.214C36.6569 112.214 36.9781 112.264 37.2561 112.364C37.5341 112.465 37.7734 112.599 37.9739 112.768C38.179 112.936 38.3522 113.125 38.4934 113.335H38.5618C38.5345 113.189 38.5003 112.975 38.4593 112.692C38.4228 112.405 38.4046 112.111 38.4046 111.811V109.363H40.4964V120H38.8968L38.4934 119.009H38.4046C38.2724 119.218 38.1061 119.41 37.9055 119.583C37.7096 119.752 37.4749 119.886 37.2014 119.986C36.928 120.087 36.6067 120.137 36.2376 120.137ZM36.969 118.476C37.5387 118.476 37.9397 118.307 38.1721 117.97C38.4091 117.628 38.5345 117.115 38.5481 116.432V116.206C38.5481 115.463 38.4342 114.896 38.2063 114.504C37.9785 114.107 37.5546 113.909 36.9348 113.909C36.4746 113.909 36.1145 114.107 35.8548 114.504C35.595 114.9 35.4651 115.472 35.4651 116.22C35.4651 116.967 35.595 117.53 35.8548 117.908C36.1191 118.286 36.4905 118.476 36.969 118.476ZM49.9023 116.165C49.9023 116.803 49.8158 117.368 49.6426 117.86C49.474 118.353 49.2256 118.77 48.8975 119.111C48.5739 119.449 48.182 119.704 47.7217 119.877C47.266 120.05 46.751 120.137 46.1768 120.137C45.639 120.137 45.1445 120.05 44.6934 119.877C44.2467 119.704 43.8571 119.449 43.5244 119.111C43.1963 118.77 42.9411 118.353 42.7588 117.86C42.5811 117.368 42.4922 116.803 42.4922 116.165C42.4922 115.317 42.6426 114.6 42.9434 114.012C43.2441 113.424 43.6725 112.977 44.2285 112.672C44.7845 112.367 45.4476 112.214 46.2178 112.214C46.9333 112.214 47.5667 112.367 48.1182 112.672C48.6742 112.977 49.1094 113.424 49.4238 114.012C49.7428 114.6 49.9023 115.317 49.9023 116.165ZM44.6182 116.165C44.6182 116.666 44.6729 117.088 44.7822 117.43C44.8916 117.771 45.0625 118.029 45.2949 118.202C45.5273 118.375 45.8304 118.462 46.2041 118.462C46.5732 118.462 46.8717 118.375 47.0996 118.202C47.332 118.029 47.5007 117.771 47.6055 117.43C47.7148 117.088 47.7695 116.666 47.7695 116.165C47.7695 115.659 47.7148 115.24 47.6055 114.907C47.5007 114.57 47.332 114.317 47.0996 114.148C46.8672 113.98 46.5641 113.896 46.1904 113.896C45.639 113.896 45.238 114.085 44.9873 114.463C44.7412 114.841 44.6182 115.409 44.6182 116.165ZM53.99 109.363V111.838C53.99 112.125 53.9808 112.41 53.9626 112.692C53.9489 112.975 53.9307 113.194 53.9079 113.349H53.99C54.1905 113.034 54.4639 112.768 54.8103 112.549C55.1566 112.326 55.6055 112.214 56.157 112.214C57.0137 112.214 57.7087 112.549 58.2419 113.219C58.7751 113.889 59.0417 114.871 59.0417 116.165C59.0417 117.035 58.9187 117.767 58.6726 118.359C58.4265 118.947 58.0824 119.392 57.6404 119.692C57.1983 119.989 56.6856 120.137 56.1023 120.137C55.5417 120.137 55.0997 120.036 54.7761 119.836C54.4525 119.635 54.1905 119.41 53.99 119.159H53.8464L53.4978 120H51.905V109.363H53.99ZM55.487 113.882C55.1224 113.882 54.8331 113.957 54.6189 114.107C54.4047 114.258 54.2474 114.483 54.1472 114.784C54.0515 115.085 53.9991 115.465 53.99 115.926V116.151C53.99 116.894 54.0993 117.464 54.3181 117.86C54.5368 118.252 54.9356 118.448 55.5144 118.448C55.9428 118.448 56.2823 118.25 56.5329 117.854C56.7881 117.457 56.9157 116.885 56.9157 116.138C56.9157 115.39 56.7881 114.827 56.5329 114.449C56.2777 114.071 55.9291 113.882 55.487 113.882ZM64.1957 112.214C64.9021 112.214 65.5105 112.351 66.0209 112.624C66.5314 112.893 66.9256 113.285 67.2036 113.8C67.4815 114.315 67.6205 114.944 67.6205 115.687V116.698H62.6918C62.7146 117.286 62.8901 117.749 63.2182 118.086C63.5509 118.419 64.0112 118.585 64.5991 118.585C65.0867 118.585 65.5333 118.535 65.9389 118.435C66.3445 118.334 66.7615 118.184 67.1899 117.983V119.597C66.8116 119.784 66.4151 119.92 66.0004 120.007C65.5903 120.093 65.0912 120.137 64.5034 120.137C63.7377 120.137 63.0587 119.995 62.4662 119.713C61.8784 119.43 61.4158 119 61.0786 118.421C60.7459 117.842 60.5795 117.113 60.5795 116.233C60.5795 115.34 60.7299 114.597 61.0307 114.005C61.336 113.408 61.7599 112.961 62.3022 112.665C62.8445 112.364 63.4757 112.214 64.1957 112.214ZM64.2094 113.697C63.8038 113.697 63.4666 113.827 63.1977 114.087C62.9334 114.347 62.7807 114.755 62.7397 115.311H65.6655C65.6609 115.001 65.6039 114.725 65.4946 114.483C65.3898 114.242 65.2302 114.05 65.0161 113.909C64.8064 113.768 64.5375 113.697 64.2094 113.697ZM8.0098 139L7.28519 136.621H3.64164L2.91703 139H0.633827L4.16117 128.965H6.75199L10.293 139H8.0098ZM6.77934 134.844L6.05473 132.52C6.00915 132.365 5.94763 132.166 5.87016 131.925C5.79724 131.679 5.72204 131.43 5.64457 131.18C5.57165 130.924 5.51241 130.703 5.46684 130.517C5.42126 130.703 5.35746 130.936 5.27543 131.214C5.19795 131.487 5.12276 131.747 5.04984 131.993C4.97693 132.239 4.92452 132.415 4.89262 132.52L4.17484 134.844H6.77934ZM15.8982 132.923H14.0935V139H12.0086V132.923H10.8601V131.918L12.0086 131.357V130.797C12.0086 130.145 12.1179 129.639 12.3367 129.279C12.56 128.915 12.8722 128.66 13.2732 128.514C13.6788 128.363 14.1573 128.288 14.7087 128.288C15.1143 128.288 15.4835 128.322 15.8162 128.391C16.1489 128.454 16.42 128.527 16.6296 128.609L16.0964 130.141C15.9369 130.09 15.7638 130.045 15.5769 130.004C15.3901 129.963 15.1759 129.942 14.9343 129.942C14.6427 129.942 14.4285 130.031 14.2918 130.209C14.1596 130.382 14.0935 130.605 14.0935 130.879V131.357H15.8982V132.923ZM20.6011 137.476C20.8289 137.476 21.0499 137.453 21.2641 137.407C21.4829 137.362 21.6994 137.305 21.9136 137.236V138.788C21.6902 138.888 21.4123 138.97 21.0796 139.034C20.7514 139.103 20.3914 139.137 19.9995 139.137C19.5438 139.137 19.1336 139.064 18.769 138.918C18.409 138.768 18.1242 138.51 17.9145 138.146C17.7095 137.776 17.6069 137.264 17.6069 136.607V132.923H16.6089V132.041L17.7573 131.344L18.3589 129.73H19.6919V131.357H21.8315V132.923H19.6919V136.607C19.6919 136.899 19.7739 137.118 19.938 137.264C20.1066 137.405 20.3276 137.476 20.6011 137.476ZM26.8967 131.214C27.6031 131.214 28.2115 131.351 28.7219 131.624C29.2323 131.893 29.6265 132.285 29.9045 132.8C30.1825 133.315 30.3215 133.944 30.3215 134.687V135.698H25.3928C25.4156 136.286 25.591 136.749 25.9191 137.086C26.2518 137.419 26.7121 137.585 27.3 137.585C27.7876 137.585 28.2342 137.535 28.6398 137.435C29.0454 137.334 29.4624 137.184 29.8908 136.983V138.597C29.5126 138.784 29.1161 138.92 28.7014 139.007C28.2912 139.093 27.7922 139.137 27.2043 139.137C26.4387 139.137 25.7596 138.995 25.1672 138.713C24.5793 138.43 24.1167 138 23.7795 137.421C23.4468 136.842 23.2805 136.113 23.2805 135.233C23.2805 134.34 23.4309 133.597 23.7316 133.005C24.037 132.408 24.4608 131.961 25.0031 131.665C25.5454 131.364 26.1766 131.214 26.8967 131.214ZM26.9104 132.697C26.5048 132.697 26.1675 132.827 25.8986 133.087C25.6343 133.347 25.4816 133.755 25.4406 134.311H28.3664C28.3618 134.001 28.3049 133.725 28.1955 133.483C28.0907 133.242 27.9312 133.05 27.717 132.909C27.5074 132.768 27.2385 132.697 26.9104 132.697ZM36.5624 131.214C36.6672 131.214 36.788 131.221 36.9247 131.234C37.066 131.243 37.1799 131.257 37.2665 131.275L37.1093 133.23C37.0409 133.208 36.943 133.192 36.8154 133.183C36.6923 133.169 36.5852 133.162 36.4941 133.162C36.2252 133.162 35.9631 133.196 35.7079 133.265C35.4573 133.333 35.2317 133.445 35.0312 133.6C34.8307 133.75 34.6711 133.951 34.5527 134.201C34.4387 134.447 34.3818 134.75 34.3818 135.11V139H32.2968V131.357H33.8759L34.1835 132.643H34.2861C34.4364 132.383 34.6233 132.146 34.8466 131.932C35.0745 131.713 35.332 131.54 35.6191 131.412C35.9107 131.28 36.2252 131.214 36.5624 131.214ZM48.7709 139H43.015V129.006H48.7709V130.742H45.1341V132.937H48.5179V134.673H45.1341V137.25H48.7709V139ZM55.2032 132.923H53.3985V139H51.3136V132.923H50.1651V131.918L51.3136 131.357V130.797C51.3136 130.145 51.4229 129.639 51.6417 129.279C51.865 128.915 52.1772 128.66 52.5782 128.514C52.9838 128.363 53.4623 128.288 54.0137 128.288C54.4193 128.288 54.7885 128.322 55.1212 128.391C55.4539 128.454 55.725 128.527 55.9346 128.609L55.4014 130.141C55.2419 130.09 55.0688 130.045 54.8819 130.004C54.6951 129.963 54.4809 129.942 54.2393 129.942C53.9477 129.942 53.7335 130.031 53.5968 130.209C53.4646 130.382 53.3985 130.605 53.3985 130.879V131.357H55.2032V132.923ZM60.6241 132.923H58.8194V139H56.7345V132.923H55.586V131.918L56.7345 131.357V130.797C56.7345 130.145 56.8438 129.639 57.0626 129.279C57.2859 128.915 57.5981 128.66 57.9991 128.514C58.4047 128.363 58.8832 128.288 59.4346 128.288C59.8402 128.288 60.2094 128.322 60.5421 128.391C60.8748 128.454 61.1459 128.527 61.3555 128.609L60.8223 130.141C60.6628 130.09 60.4897 130.045 60.3028 130.004C60.116 129.963 59.9018 129.942 59.6602 129.942C59.3686 129.942 59.1544 130.031 59.0177 130.209C58.8855 130.382 58.8194 130.605 58.8194 130.879V131.357H60.6241V132.923ZM65.2518 131.214C65.9581 131.214 66.5665 131.351 67.077 131.624C67.5874 131.893 67.9816 132.285 68.2596 132.8C68.5376 133.315 68.6766 133.944 68.6766 134.687V135.698H63.7479C63.7706 136.286 63.9461 136.749 64.2742 137.086C64.6069 137.419 65.0672 137.585 65.6551 137.585C66.1427 137.585 66.5893 137.535 66.9949 137.435C67.4005 137.334 67.8175 137.184 68.2459 136.983V138.597C67.8676 138.784 67.4712 138.92 67.0564 139.007C66.6463 139.093 66.1473 139.137 65.5594 139.137C64.7938 139.137 64.1147 138.995 63.5223 138.713C62.9344 138.43 62.4718 138 62.1346 137.421C61.8019 136.842 61.6355 136.113 61.6355 135.233C61.6355 134.34 61.7859 133.597 62.0867 133.005C62.3921 132.408 62.8159 131.961 63.3582 131.665C63.9005 131.364 64.5317 131.214 65.2518 131.214ZM65.2654 132.697C64.8598 132.697 64.5226 132.827 64.2537 133.087C63.9894 133.347 63.8367 133.755 63.7957 134.311H66.7215C66.7169 134.001 66.66 133.725 66.5506 133.483C66.4458 133.242 66.2863 133.05 66.0721 132.909C65.8624 132.768 65.5936 132.697 65.2654 132.697ZM73.7554 139.137C72.9989 139.137 72.354 139 71.8208 138.727C71.2876 138.449 70.882 138.02 70.604 137.441C70.326 136.863 70.187 136.122 70.187 135.22C70.187 134.285 70.3443 133.524 70.6587 132.937C70.9777 132.344 71.4175 131.909 71.978 131.631C72.5431 131.353 73.1971 131.214 73.94 131.214C74.4686 131.214 74.9243 131.266 75.3071 131.371C75.6945 131.471 76.0318 131.592 76.3189 131.733L75.7036 133.347C75.3755 133.215 75.0702 133.107 74.7876 133.025C74.5051 132.939 74.2225 132.896 73.94 132.896C73.5754 132.896 73.2723 132.982 73.0308 133.155C72.7892 133.324 72.6092 133.579 72.4907 133.921C72.3722 134.263 72.313 134.691 72.313 135.206C72.313 135.712 72.3768 136.131 72.5044 136.464C72.632 136.797 72.8166 137.045 73.0581 137.209C73.2997 137.368 73.5936 137.448 73.94 137.448C74.3729 137.448 74.758 137.391 75.0952 137.277C75.4325 137.159 75.7606 136.995 76.0796 136.785V138.569C75.7606 138.77 75.4256 138.913 75.0747 139C74.7284 139.091 74.2886 139.137 73.7554 139.137ZM81.3567 137.476C81.5845 137.476 81.8056 137.453 82.0198 137.407C82.2385 137.362 82.455 137.305 82.6692 137.236V138.788C82.4459 138.888 82.1679 138.97 81.8352 139.034C81.5071 139.103 81.147 139.137 80.7551 139.137C80.2994 139.137 79.8892 139.064 79.5247 138.918C79.1646 138.768 78.8798 138.51 78.6702 138.146C78.4651 137.776 78.3625 137.264 78.3625 136.607V132.923H77.3645V132.041L78.5129 131.344L79.1145 129.73H80.4475V131.357H82.5872V132.923H80.4475V136.607C80.4475 136.899 80.5295 137.118 80.6936 137.264C80.8622 137.405 81.0832 137.476 81.3567 137.476ZM89.833 136.73C89.833 137.25 89.7099 137.69 89.4638 138.05C89.2223 138.405 88.86 138.676 88.3769 138.863C87.8938 139.046 87.2923 139.137 86.5722 139.137C86.039 139.137 85.581 139.103 85.1982 139.034C84.8199 138.966 84.4371 138.852 84.0498 138.692V136.97C84.4645 137.157 84.9088 137.312 85.3828 137.435C85.8613 137.553 86.2806 137.612 86.6406 137.612C87.0462 137.612 87.3356 137.553 87.5088 137.435C87.6865 137.312 87.7754 137.152 87.7754 136.956C87.7754 136.828 87.7389 136.715 87.666 136.614C87.5976 136.509 87.4472 136.393 87.2148 136.266C86.9824 136.133 86.6178 135.963 86.1211 135.753C85.6425 135.552 85.2483 135.35 84.9384 135.145C84.6331 134.939 84.4052 134.698 84.2548 134.42C84.109 134.137 84.0361 133.78 84.0361 133.347C84.0361 132.64 84.3095 132.109 84.8564 131.754C85.4078 131.394 86.1438 131.214 87.0644 131.214C87.5384 131.214 87.9895 131.262 88.4179 131.357C88.8509 131.453 89.2952 131.606 89.7509 131.815L89.122 133.319C88.7438 133.155 88.386 133.021 88.0488 132.916C87.7161 132.811 87.3766 132.759 87.0302 132.759C86.7249 132.759 86.4948 132.8 86.3398 132.882C86.1849 132.964 86.1074 133.089 86.1074 133.258C86.1074 133.381 86.1461 133.49 86.2236 133.586C86.3056 133.682 86.4606 133.789 86.6884 133.907C86.9209 134.021 87.2604 134.169 87.707 134.352C88.1399 134.529 88.5159 134.716 88.8349 134.912C89.1539 135.104 89.4 135.343 89.5732 135.63C89.7464 135.912 89.833 136.279 89.833 136.73Z" fill="#828282"/>
</svg>
