<svg width="81" height="143" viewBox="0 0 81 143" fill="none" xmlns="http://www.w3.org/2000/svg">
<path d="M80.5 0H0.5V80H80.5V0Z" fill="#FF7C00"/>
<path d="M73.7956 6.7041H7.20471V73.2953H73.7956V6.7041Z" fill="#261300"/>
<path d="M60.4588 32.0449H54.1419C53.9792 32.0449 53.8473 32.1777 53.8473 32.3414V58.4359C53.8473 58.5997 53.9792 58.7324 54.1419 58.7324H60.4588C60.6215 58.7324 60.7535 58.5997 60.7535 58.4359V32.3414C60.7535 32.1777 60.6215 32.0449 60.4588 32.0449Z" fill="#FF7C00"/>
<path d="M57.3001 28.5183C59.3271 28.5183 60.9703 26.9372 60.9703 24.9867C60.9703 23.0362 59.3271 21.4551 57.3001 21.4551C55.2731 21.4551 53.6299 23.0362 53.6299 24.9867C53.6299 26.9372 55.2731 28.5183 57.3001 28.5183Z" fill="#FF7C00"/>
<path fill-rule="evenodd" clip-rule="evenodd" d="M40.195 49.4013L42.7848 58.0301C42.9192 58.5399 43.1828 58.6647 43.5395 58.6595H50.1717C50.6835 58.6647 50.7197 58.5086 50.6421 58.1654L39.6884 21.4031C39.6677 21.3355 39.616 21.2887 39.5127 21.2887L30.3268 21.2627C29.965 21.2627 29.9598 21.4499 29.9908 21.8036C30.1045 23.0831 30.0425 23.8009 29.7737 24.8047L20.0761 58.1862C19.9727 58.5034 19.9986 58.6595 20.4121 58.6647L26.6721 58.6595C27.3338 58.6387 27.37 58.4566 27.4837 58.1238L29.6548 49.4013H40.195ZM38.8562 42.6917H31.2521L34.9378 27.6914L38.8562 42.6917Z" fill="#FF7C00"/>
<path d="M25.1539 120L24.4293 117.621H20.7857L20.0611 120H17.7779L21.3052 109.965H23.8961L27.4371 120H25.1539ZM23.9234 115.844L23.1988 113.52C23.1532 113.365 23.0917 113.166 23.0142 112.925C22.9413 112.679 22.8661 112.43 22.7886 112.18C22.7157 111.924 22.6565 111.703 22.6109 111.517C22.5653 111.703 22.5015 111.936 22.4195 112.214C22.342 112.487 22.2668 112.747 22.1939 112.993C22.121 113.239 22.0686 113.415 22.0367 113.52L21.3189 115.844H23.9234ZM31.2376 120.137C30.3854 120.137 29.6904 119.804 29.1526 119.139C28.6194 118.469 28.3528 117.487 28.3528 116.192C28.3528 114.884 28.624 113.896 29.1663 113.226C29.7086 112.551 30.4173 112.214 31.2923 112.214C31.6569 112.214 31.9781 112.264 32.2561 112.364C32.5341 112.465 32.7734 112.599 32.9739 112.768C33.179 112.936 33.3522 113.125 33.4934 113.335H33.5618C33.5345 113.189 33.5003 112.975 33.4593 112.692C33.4228 112.405 33.4046 112.111 33.4046 111.811V109.363H35.4964V120H33.8968L33.4934 119.009H33.4046C33.2724 119.218 33.1061 119.41 32.9055 119.583C32.7096 119.752 32.4749 119.886 32.2014 119.986C31.928 120.087 31.6067 120.137 31.2376 120.137ZM31.969 118.476C32.5387 118.476 32.9397 118.307 33.1721 117.97C33.4091 117.628 33.5345 117.115 33.5481 116.432V116.206C33.5481 115.463 33.4342 114.896 33.2063 114.504C32.9785 114.107 32.5546 113.909 31.9348 113.909C31.4746 113.909 31.1145 114.107 30.8548 114.504C30.595 114.9 30.4651 115.472 30.4651 116.22C30.4651 116.967 30.595 117.53 30.8548 117.908C31.1191 118.286 31.4905 118.476 31.969 118.476ZM44.9023 116.165C44.9023 116.803 44.8158 117.368 44.6426 117.86C44.474 118.353 44.2256 118.77 43.8975 119.111C43.5739 119.449 43.182 119.704 42.7217 119.877C42.266 120.05 41.751 120.137 41.1768 120.137C40.639 120.137 40.1445 120.05 39.6934 119.877C39.2467 119.704 38.8571 119.449 38.5244 119.111C38.1963 118.77 37.9411 118.353 37.7588 117.86C37.5811 117.368 37.4922 116.803 37.4922 116.165C37.4922 115.317 37.6426 114.6 37.9434 114.012C38.2441 113.424 38.6725 112.977 39.2285 112.672C39.7845 112.367 40.4476 112.214 41.2178 112.214C41.9333 112.214 42.5667 112.367 43.1182 112.672C43.6742 112.977 44.1094 113.424 44.4238 114.012C44.7428 114.6 44.9023 115.317 44.9023 116.165ZM39.6182 116.165C39.6182 116.666 39.6729 117.088 39.7822 117.43C39.8916 117.771 40.0625 118.029 40.2949 118.202C40.5273 118.375 40.8304 118.462 41.2041 118.462C41.5732 118.462 41.8717 118.375 42.0996 118.202C42.332 118.029 42.5007 117.771 42.6055 117.43C42.7148 117.088 42.7695 116.666 42.7695 116.165C42.7695 115.659 42.7148 115.24 42.6055 114.907C42.5007 114.57 42.332 114.317 42.0996 114.148C41.8672 113.98 41.5641 113.896 41.1904 113.896C40.639 113.896 40.238 114.085 39.9873 114.463C39.7412 114.841 39.6182 115.409 39.6182 116.165ZM48.99 109.363V111.838C48.99 112.125 48.9808 112.41 48.9626 112.692C48.9489 112.975 48.9307 113.194 48.9079 113.349H48.99C49.1905 113.034 49.4639 112.768 49.8103 112.549C50.1566 112.326 50.6055 112.214 51.157 112.214C52.0137 112.214 52.7087 112.549 53.2419 113.219C53.7751 113.889 54.0417 114.871 54.0417 116.165C54.0417 117.035 53.9187 117.767 53.6726 118.359C53.4265 118.947 53.0824 119.392 52.6404 119.692C52.1983 119.989 51.6856 120.137 51.1023 120.137C50.5417 120.137 50.0997 120.036 49.7761 119.836C49.4525 119.635 49.1905 119.41 48.99 119.159H48.8464L48.4978 120H46.905V109.363H48.99ZM50.487 113.882C50.1224 113.882 49.8331 113.957 49.6189 114.107C49.4047 114.258 49.2474 114.483 49.1472 114.784C49.0515 115.085 48.9991 115.465 48.99 115.926V116.151C48.99 116.894 49.0993 117.464 49.3181 117.86C49.5368 118.252 49.9356 118.448 50.5144 118.448C50.9428 118.448 51.2823 118.25 51.5329 117.854C51.7881 117.457 51.9157 116.885 51.9157 116.138C51.9157 115.39 51.7881 114.827 51.5329 114.449C51.2777 114.071 50.9291 113.882 50.487 113.882ZM59.1957 112.214C59.9021 112.214 60.5105 112.351 61.0209 112.624C61.5314 112.893 61.9256 113.285 62.2036 113.8C62.4815 114.315 62.6205 114.944 62.6205 115.687V116.698H57.6918C57.7146 117.286 57.8901 117.749 58.2182 118.086C58.5509 118.419 59.0112 118.585 59.5991 118.585C60.0867 118.585 60.5333 118.535 60.9389 118.435C61.3445 118.334 61.7615 118.184 62.1899 117.983V119.597C61.8116 119.784 61.4151 119.92 61.0004 120.007C60.5903 120.093 60.0912 120.137 59.5034 120.137C58.7377 120.137 58.0587 119.995 57.4662 119.713C56.8784 119.43 56.4158 119 56.0786 118.421C55.7459 117.842 55.5795 117.113 55.5795 116.233C55.5795 115.34 55.7299 114.597 56.0307 114.005C56.336 113.408 56.7599 112.961 57.3022 112.665C57.8445 112.364 58.4757 112.214 59.1957 112.214ZM59.2094 113.697C58.8038 113.697 58.4666 113.827 58.1977 114.087C57.9334 114.347 57.7807 114.755 57.7397 115.311H60.6655C60.6609 115.001 60.6039 114.725 60.4946 114.483C60.3898 114.242 60.2302 114.05 60.0161 113.909C59.8064 113.768 59.5375 113.697 59.2094 113.697ZM4.67422 139V129.006H6.79336V139H4.67422ZM11.5099 139H9.42492V128.363H11.5099V139ZM16.0692 139H13.9842V128.363H16.0692V139ZM25.5572 131.357V139H23.9576L23.6773 138.022H23.5679C23.4039 138.282 23.1988 138.494 22.9527 138.658C22.7066 138.822 22.4354 138.943 22.1392 139.021C21.843 139.098 21.5354 139.137 21.2164 139.137C20.6695 139.137 20.1933 139.041 19.7877 138.85C19.3821 138.654 19.0653 138.351 18.8375 137.94C18.6142 137.53 18.5025 136.997 18.5025 136.341V131.357H20.5875V135.821C20.5875 136.368 20.6854 136.781 20.8814 137.059C21.0774 137.337 21.3895 137.476 21.8179 137.476C22.2418 137.476 22.5744 137.38 22.816 137.188C23.0575 136.993 23.2261 136.708 23.3218 136.334C23.4221 135.956 23.4722 135.495 23.4722 134.953V131.357H25.5572ZM33.3567 136.73C33.3567 137.25 33.2337 137.69 32.9876 138.05C32.746 138.405 32.3837 138.676 31.9007 138.863C31.4176 139.046 30.816 139.137 30.096 139.137C29.5628 139.137 29.1048 139.103 28.722 139.034C28.3437 138.966 27.9609 138.852 27.5735 138.692V136.97C27.9882 137.157 28.4326 137.312 28.9065 137.435C29.385 137.553 29.8043 137.612 30.1643 137.612C30.5699 137.612 30.8593 137.553 31.0325 137.435C31.2102 137.312 31.2991 137.152 31.2991 136.956C31.2991 136.828 31.2626 136.715 31.1897 136.614C31.1214 136.509 30.971 136.393 30.7386 136.266C30.5061 136.133 30.1415 135.963 29.6448 135.753C29.1663 135.552 28.7721 135.35 28.4622 135.145C28.1568 134.939 27.929 134.698 27.7786 134.42C27.6328 134.137 27.5598 133.78 27.5598 133.347C27.5598 132.64 27.8333 132.109 28.3802 131.754C28.9316 131.394 29.6676 131.214 30.5882 131.214C31.0621 131.214 31.5133 131.262 31.9417 131.357C32.3746 131.453 32.819 131.606 33.2747 131.815L32.6458 133.319C32.2675 133.155 31.9098 133.021 31.5725 132.916C31.2399 132.811 30.9003 132.759 30.554 132.759C30.2486 132.759 30.0185 132.8 29.8636 132.882C29.7086 132.964 29.6311 133.089 29.6311 133.258C29.6311 133.381 29.6699 133.49 29.7473 133.586C29.8294 133.682 29.9843 133.789 30.2122 133.907C30.4446 134.021 30.7841 134.169 31.2307 134.352C31.6637 134.529 32.0397 134.716 32.3587 134.912C32.6777 135.104 32.9238 135.343 33.097 135.63C33.2701 135.912 33.3567 136.279 33.3567 136.73ZM38.4834 137.476C38.7113 137.476 38.9323 137.453 39.1465 137.407C39.3652 137.362 39.5817 137.305 39.7959 137.236V138.788C39.5726 138.888 39.2946 138.97 38.9619 139.034C38.6338 139.103 38.2738 139.137 37.8818 139.137C37.4261 139.137 37.0159 139.064 36.6514 138.918C36.2913 138.768 36.0065 138.51 35.7969 138.146C35.5918 137.776 35.4893 137.264 35.4893 136.607V132.923H34.4912V132.041L35.6396 131.344L36.2412 129.73H37.5742V131.357H39.7139V132.923H37.5742V136.607C37.5742 136.899 37.6562 137.118 37.8203 137.264C37.9889 137.405 38.21 137.476 38.4834 137.476ZM45.8933 131.214C45.9981 131.214 46.1189 131.221 46.2556 131.234C46.3969 131.243 46.5108 131.257 46.5974 131.275L46.4402 133.23C46.3718 133.208 46.2738 133.192 46.1462 133.183C46.0232 133.169 45.9161 133.162 45.8249 133.162C45.556 133.162 45.294 133.196 45.0388 133.265C44.7881 133.333 44.5626 133.445 44.362 133.6C44.1615 133.75 44.002 133.951 43.8835 134.201C43.7696 134.447 43.7126 134.75 43.7126 135.11V139H41.6277V131.357H43.2068L43.5144 132.643H43.6169C43.7673 132.383 43.9542 132.146 44.1775 131.932C44.4053 131.713 44.6628 131.54 44.9499 131.412C45.2416 131.28 45.556 131.214 45.8933 131.214ZM51.3959 131.2C52.4213 131.2 53.2075 131.424 53.7543 131.87C54.3012 132.317 54.5746 132.996 54.5746 133.907V139H53.1186L52.7153 137.961H52.6606C52.4418 138.234 52.2185 138.458 51.9907 138.631C51.7628 138.804 51.5008 138.932 51.2045 139.014C50.9083 139.096 50.5483 139.137 50.1245 139.137C49.6733 139.137 49.2677 139.05 48.9077 138.877C48.5522 138.704 48.2719 138.439 48.0668 138.084C47.8618 137.724 47.7592 137.268 47.7592 136.717C47.7592 135.906 48.044 135.309 48.6137 134.926C49.1834 134.538 50.0379 134.324 51.1772 134.283L52.5034 134.242V133.907C52.5034 133.506 52.3985 133.212 52.1889 133.025C51.9793 132.839 51.6876 132.745 51.3139 132.745C50.9448 132.745 50.5825 132.798 50.227 132.902C49.8715 133.007 49.5161 133.139 49.1606 133.299L48.4702 131.891C48.8758 131.676 49.3292 131.508 49.8305 131.385C50.3364 131.262 50.8582 131.2 51.3959 131.2ZM52.5034 135.459L51.6967 135.486C51.0222 135.505 50.5528 135.625 50.2885 135.849C50.0287 136.072 49.8989 136.366 49.8989 136.73C49.8989 137.049 49.9923 137.277 50.1791 137.414C50.366 137.546 50.6098 137.612 50.9106 137.612C51.3572 137.612 51.7332 137.48 52.0385 137.216C52.3484 136.951 52.5034 136.576 52.5034 136.088V135.459ZM60.2277 137.476C60.4556 137.476 60.6766 137.453 60.8908 137.407C61.1095 137.362 61.326 137.305 61.5402 137.236V138.788C61.3169 138.888 61.0389 138.97 60.7062 139.034C60.3781 139.103 60.0181 139.137 59.6261 139.137C59.1704 139.137 58.7602 139.064 58.3957 138.918C58.0356 138.768 57.7508 138.51 57.5412 138.146C57.3361 137.776 57.2336 137.264 57.2336 136.607V132.923H56.2355V132.041L57.3839 131.344L57.9855 129.73H59.3185V131.357H61.4582V132.923H59.3185V136.607C59.3185 136.899 59.4005 137.118 59.5646 137.264C59.7332 137.405 59.9543 137.476 60.2277 137.476ZM70.3173 135.165C70.3173 135.803 70.2307 136.368 70.0575 136.86C69.8889 137.353 69.6405 137.77 69.3124 138.111C68.9888 138.449 68.5969 138.704 68.1366 138.877C67.6809 139.05 67.1659 139.137 66.5917 139.137C66.0539 139.137 65.5595 139.05 65.1083 138.877C64.6617 138.704 64.272 138.449 63.9393 138.111C63.6112 137.77 63.356 137.353 63.1737 136.86C62.996 136.368 62.9071 135.803 62.9071 135.165C62.9071 134.317 63.0575 133.6 63.3583 133.012C63.6591 132.424 64.0874 131.977 64.6434 131.672C65.1994 131.367 65.8625 131.214 66.6327 131.214C67.3482 131.214 67.9817 131.367 68.5331 131.672C69.0891 131.977 69.5243 132.424 69.8387 133.012C70.1578 133.6 70.3173 134.317 70.3173 135.165ZM65.0331 135.165C65.0331 135.666 65.0878 136.088 65.1971 136.43C65.3065 136.771 65.4774 137.029 65.7098 137.202C65.9423 137.375 66.2453 137.462 66.619 137.462C66.9882 137.462 67.2867 137.375 67.5145 137.202C67.747 137.029 67.9156 136.771 68.0204 136.43C68.1298 136.088 68.1845 135.666 68.1845 135.165C68.1845 134.659 68.1298 134.24 68.0204 133.907C67.9156 133.57 67.747 133.317 67.5145 133.148C67.2821 132.98 66.979 132.896 66.6054 132.896C66.0539 132.896 65.6529 133.085 65.4022 133.463C65.1561 133.841 65.0331 134.409 65.0331 135.165ZM76.5855 131.214C76.6904 131.214 76.8111 131.221 76.9479 131.234C77.0891 131.243 77.2031 131.257 77.2896 131.275L77.1324 133.23C77.0641 133.208 76.9661 133.192 76.8385 133.183C76.7154 133.169 76.6083 133.162 76.5172 133.162C76.2483 133.162 75.9863 133.196 75.7311 133.265C75.4804 133.333 75.2548 133.445 75.0543 133.6C74.8538 133.75 74.6943 133.951 74.5758 134.201C74.4619 134.447 74.4049 134.75 74.4049 135.11V139H72.3199V131.357H73.899L74.2066 132.643H74.3092C74.4596 132.383 74.6464 132.146 74.8697 131.932C75.0976 131.713 75.3551 131.54 75.6422 131.412C75.9339 131.28 76.2483 131.214 76.5855 131.214Z" fill="#828282"/>
</svg>
